PathFileType	4	(X/Y/Z)	/home/abdul/Desktop/myosuite/custom_workspace/IK/output/S4_12_2.trc
DataRate	CameraRate	NumFrames	NumMarkers	Units	OrigDataRate	OrigDataStartFrame	OrigNumFrames
200.0	200.0	50	3	mm	200.0	791	1054
Frame#	Time	V_Shoulder			V_Elbow			V_Wrist		
		X1	Y1	Z1	X2	Y2	Z2	X3	Y3	Z3

791	3.95	-81.66291611898198	570.6248962685528	275.60397742317974	-186.6261314899088	445.64521164856285	19.782888247833718	-185.6870040512163	230.16302059581278	84.40165862691713
792	3.955	-81.73858934316301	570.7897880557772	275.5976971365205	-187.4405630718408	445.40174955558314	20.294503493380816	-187.2788854975259	229.5840253020269	83.88718247029948
793	3.96	-81.81868883360376	570.9507822707934	275.5894011010842	-188.23971543729067	445.14246399730314	20.805592192677558	-188.8399911667555	228.99087822354113	83.34781448570925
794	3.965	-81.90322361134278	571.1077145022122	275.5790711412462	-189.02296875287595	444.8678511181835	21.315418270770923	-190.36940622625195	228.38455840451016	82.78422485072024
795	3.97	-81.99219710480817	571.2604284300438	275.566692692302	-189.78972995994087	444.57842809036174	21.823252979426407	-191.86627237306203	227.76605421476796	82.1971054349456
796	3.975	-82.08560709261769	571.4087762737627	275.55225488325317	-190.53943395370035	444.2747318319666	22.328376701332623	-193.3297888599376	227.13636098716006	81.58716856517731
797	3.98	-82.18344565757896	571.5526192191227	275.5357506096642	-191.2715446980767	443.95731769940755	22.830080718450635	-194.75921338446128	226.4964786897359	80.95514581882483
798	3.985	-82.28569915211958	571.6918278223308	275.5171765962329	-191.9855562727983	443.6267581572289	23.327668939568806	-196.15386284057325	225.84740963866466	80.30178684637733
799	3.99	-82.39234817534576	571.826282390246	275.49653344874764	-192.68099384952265	443.2836414290664	23.8204595822854	-197.51311393213922	225.19015625735466	79.62785822318713
800	3.995	-82.50336756189607	571.9558733353455	275.47382569514383	-193.35741459395376	442.92857013317337	24.307786804813087	-198.83640364855498	224.5257188868723	78.93414233046178
801	4.0	-82.61872638272332	572.080501504276	275.4490618154071	-194.0144084911394	442.5621599059135	24.78900228318052	-200.1232296027344	223.85509365236288	78.22143626496401
802	4.005	-82.7383879579046	572.2000784788833	275.42225426011277	-194.65159909136207	442.1850380165374	25.263476729596274	-201.37315023217383	223.17927038978712	77.49055077655414
803	4.01	-82.86230988154377	572.3145268487002	275.3934194574268	-195.2686441742739	441.79784197647376	25.730601347938705	-202.58578486412387	222.49923063689613	76.74230923236928
804	4.015	-82.99044405879668	572.4237804539557	275.3625778084401	-195.86523632916953	441.40121814628174	26.18978922254128	-203.76081364623334	221.8159456919853	75.97754660612173
805	4.02	-83.1227367550136	572.5277845982586	275.3297536707442	-196.4411034495443	440.9958203433167	26.640476636656174	-204.897977344352	221.1303747435898	75.19710849071666
806	4.025	-83.25912865695689	572.6264962302042	275.29497533020236	-196.99600914034212	440.58230845306826	27.082124317198996	-205.99707700949443	220.44346307391845	74.40185013213627
807	4.03	-83.39955494601737	572.7198840932434	275.25827496091193	-197.52975303656046	440.1613470470392	27.514218602603375	-207.05797351627157	219.7561403384655	73.59263548231914
808	4.035	-83.54394538331577	572.807928843252	275.21968857339664	-198.04217103214907	439.7336040099386	27.93627253084632	-208.08058697539073	219.06931892390014	72.77033626857585
809	4.04	-83.69222440654063	572.89062313334	275.17925595111103	-198.53313541840893	439.2997491788682	28.347826844942425	-209.06489602310623	218.38389238600405	71.9358310769309
810	4.045	-83.84431123833785	572.9679716655438	275.13702057538404	-199.00255493137246	438.8604529970946	28.7484509134471	-210.0109369907749	217.70073396911818	71.09000444666347
811	4.05	-84.00012000603279	573.039991209137	275.09302953896946	-199.45037470792238	438.4163851849075	29.137743563755883	-210.91880295792805	217.02069520826385	70.23374597323794
812	4.055	-84.1595598724301	573.1067105854166	275.0473334484152	-199.87657615068335	437.96821342997896	29.51533382623777	-211.7886426925162	216.34460461482752	69.36794941676986
813	4.06	-84.32253517740382	573.1681706189107	274.9999863155064	-200.28117670199916	437.5166020995595	29.880881587495473	-212.6206594822154	215.67326644643992	68.49351181316328
814	4.065	-84.48894558995569	573.2244240550726	274.9510454380772	-200.66422952758506	437.0622109767619	30.234078151303883	-213.41510986090154	215.0074595614389	67.61133258508174
815	4.07	-84.65868627038842	573.2755354446207	274.90057127052756	-201.02582311072248	436.60569402311256	30.574646706040014	-214.17230223460442	214.34793635808353	66.72231264997748
816	4.075	-84.83164804220847	573.3215809948033	274.8486272844227	-201.36608075813882	436.1476981694758	30.902342697682514	-214.89259541144338	213.6954217984811	65.82735352250057
817	4.08	-85.00771757334353	573.3626483879618	274.7952798195877	-201.68516001898874	435.6888621373847	31.216954107726792	-215.576397040224	213.05061251700081	64.92735640874221
818	4.085	-85.18677756623015	573.3988365678791	274.74059792615157	-201.9832520186239	435.22981529274773	31.518301635632113	-216.2241619625379	212.41417601277618	64.02322128993177
819	4.09	-85.36870695629973	573.430255494499	274.6846531980281	-202.2605807091063	434.7711765338357	31.806238785689846	-216.8363904833573	211.78674992574065	63.11584599340598
820	4.095	-85.55338111836505	573.4570258677098	274.62751959835424	-202.51740203868377	434.31355321539024	32.08065185847706	-217.41362656525322	211.16894139549947	62.20612524889947
821	4.1	-85.74067208038424	573.4792788209849	274.5692732774431	-202.75400304270494	433.85754011063216	32.34145984733609	-217.9564559514874	210.56132650220917	61.29494972846518
822	4.105	-85.93044874405716	573.49715558577	274.5099923838343	-202.97070085870595	433.40371841289027	32.588614240599284	-218.46550422333968	209.9644497885209	60.38320506862283
823	4.11	-86.12257711168645	573.5108071276103	274.4497568690569	-203.1678416686472	432.95265477850626	32.82209873055739	-218.94143479712875	209.37882386153262	59.47177087364865
824	4.115	-86.31692051871768	573.5203937550946	274.3886482867435	-203.34579957152067	432.5049004126123	33.0419288304502	-219.38494686647005	208.80492907359928	58.56151969925906
825	4.12	-86.51333987135347	573.5260847027963	274.3267495867588	-203.50497538978084	432.0609901993119	33.24815140103841	-219.79677329538612	208.24321328075766	57.653316016303194
826	4.125	-86.7116938886228	573.5280576894675	274.26414490502935	-203.64579541327777	431.6214418777299	33.44084408859619	-220.1776784679468	207.6940916774364	56.74801515446016
827	4.13	-86.91183934827156	573.5264984528361	274.20091934977586	-203.7687100845849	431.18675526532616	33.6201146764428	-220.52845610016516	207.15794670604393	55.8464622263347
828	4.135	-87.11363133582908	573.5216002624279	274.1371587848715	-203.87419262982064	430.7574115297947	33.786100352409946	-220.84992701991263	206.63512803994752	54.949491032755944
829	4.14	-87.3169234961969	573.5135634119127	274.0729496110572	-203.9627376392549	430.33387251079375	33.93896689491642	-221.14293692064354	206.12595263828533	54.05792295050564
830	4.145	-87.52156828709691	573.5025946925493	274.0083785457606	-204.03485960217495	429.91658009266325	34.07890778059472	-221.4083540947347	205.63070487097917	53.17256580412952
831	4.15	-87.72741723371269	573.4889068493611	273.9435324022694	-204.09109140065186	429.5059556292029	34.20614321668168	-221.6470671522482	205.14963671224393	52.294212723916026
832	4.155	-87.93432118385351	573.4727180217383	273.87849786901756	-204.13198276700373	429.1023994214862	34.320919101648755	-221.859982730921	204.68296800081816	51.42364099255552
833	4.16	-88.14213056297086	573.45425117022	273.8133612897436	-204.1580987098899	428.7062902495808	34.42350591780422	-222.04802320316338	204.23088676506663	50.56161088341629
834	4.165	-88.35069562835793	573.4337334912499	273.7482084452782	-204.1700179140932	428.3179849589414	34.5141975598487	-222.2121243858224	203.79354961103246	49.7088644937869
835	4.17	-88.5598667218673	573.4113958217494	273.68312433771627	-204.16833111915236	427.9378181021218	34.59331010360582	-222.35323325842234	203.3710821714389	48.866124576833116
836	4.175	-88.76949452048738	573.3874720353809	273.6181929777201	-204.15363948209392	427.56610163633206	34.66118051938021	-222.4723056955436	202.96357961356614	48.03409337639699
837	4.18	-88.97943028412685	573.3621984324111	273.5534971756894	-204.1265529295803	427.2031246772361	34.71816533461336	-222.57030421893685	202.571107203847	47.21345146912124
838	4.185	-89.18952609996633	573.335813125096	273.48911833752254	-204.08768850483818	426.84915330924827	34.76463925071357	-222.64819577489195	202.19370092694658	46.4048566187097
839	4.19	-89.3996351227499	573.3085554205359	273.4251362656751	-204.03766871475995	426.5044304524479	34.80099371912691	-222.706949542293	201.83136815700763	45.608942647428506
840	4.195	-89.60961181040295	573.2806652029477	273.3616289662037	-203.9771198825743	426.16917578607877	34.82763548189018	-222.7475347766891	201.48408837866188	44.82631833020974
